<svg width="37" height="37" viewBox="0 0 37 37" fill="none" xmlns="http://www.w3.org/2000/svg">
<path d="M23.125 3.08337C17.9185 3.08556 13.4564 6.80591 12.5179 11.9272C16.9995 9.47477 22.6205 11.1197 25.0729 15.6012C26.5869 18.3679 26.5869 21.7154 25.0729 24.4821C30.9332 23.4086 34.8137 17.7876 33.7402 11.9272C32.8014 6.80281 28.3347 3.0814 23.125 3.08337Z" fill="#D4C9A7"/>
<path d="M10.7917 33.9167C15.0489 33.9167 18.5 30.4655 18.5 26.2083C18.5 21.9511 15.0489 18.5 10.7917 18.5C6.53447 18.5 3.08333 21.9511 3.08333 26.2083C3.08333 30.4655 6.53447 33.9167 10.7917 33.9167Z" fill="#D4A7C9"/>
<path d="M16.9583 10.7916C12.2048 10.7921 8.22539 14.3954 7.75458 19.1256C11.6639 17.446 16.1947 19.2535 17.8744 23.1629C18.7086 25.1045 18.7086 27.3037 17.8744 29.2454C22.9577 28.7399 26.6688 24.2093 26.1633 19.126C25.6929 14.395 21.7126 10.7912 16.9583 10.7916Z" fill="#D4B2A7"/>
</svg>
