<svg width="38" height="37" viewBox="0 0 38 37" fill="none" xmlns="http://www.w3.org/2000/svg">
<path d="M21.4792 13.875C20.202 13.875 19.1667 12.8397 19.1667 11.5625C19.1667 10.2853 20.202 9.25 21.4792 9.25C22.7563 9.25 23.7917 10.2853 23.7917 11.5625C23.7903 12.8391 22.7557 13.8736 21.4792 13.875Z" fill="#FCE0EF"/>
<path d="M30.2083 3H8.625C6.07377 3.00745 4.00745 5.07377 4 7.625V21.2842L9.98167 15.3025C11.8124 13.5604 14.6877 13.5604 16.5183 15.3025L20.9451 19.7533L22.3133 18.385C24.1224 16.5865 27.0443 16.5865 28.8533 18.385L34.8333 24.365V7.625C34.8259 5.07377 32.7596 3.00745 30.2083 3ZM21.7292 13.7917C20.452 13.7917 19.4167 12.7563 19.4167 11.4792C19.4167 10.202 20.452 9.16667 21.7292 9.16667C23.0063 9.16667 24.0417 10.202 24.0417 11.4792C24.0403 12.7557 23.0057 13.7903 21.7292 13.7917Z" fill="#D4A7B3"/>
<path d="M16.2683 15.3858C14.4376 13.6437 11.5623 13.6437 9.73167 15.3858L3.75 21.3675V29.2916C3.75746 31.8428 5.82379 33.9092 8.375 33.9166H29.9583C31.215 33.9161 32.4172 33.404 33.2883 32.4983L16.2683 15.3858Z" fill="#D4B2A7"/>
<path d="M34.5833 24.4484L28.6033 18.4684C26.7943 16.6699 23.8724 16.6699 22.0633 18.4684L20.695 19.8366L33.2816 32.4915C34.1174 31.6362 34.5847 30.4875 34.5833 29.2917V24.4484Z" fill="#D4C9A7"/>
</svg>
